<svg width="500" height="500" viewBox="0 0 500 500" fill="none" xmlns="http://www.w3.org/2000/svg">
<path d="M143.19 352.516V351.711C143.28 343.16 144.175 336.354 145.876 331.295C147.578 326.236 149.995 322.14 153.129 319.005C156.263 315.872 160.024 312.983 164.412 310.343C167.053 308.731 169.426 306.828 171.53 304.633C173.634 302.395 175.291 299.821 176.5 296.911C177.753 294 178.38 290.777 178.38 287.24C178.38 282.852 177.351 279.047 175.291 275.824C173.232 272.601 170.478 270.116 167.031 268.369C163.583 266.624 159.755 265.75 155.547 265.75C151.876 265.75 148.339 266.511 144.936 268.034C141.534 269.556 138.691 271.952 136.407 275.219C134.124 278.487 132.803 282.764 132.445 288.046H115.521C115.88 280.435 117.85 273.921 121.431 268.503C125.058 263.086 129.826 258.945 135.736 256.079C141.69 253.215 148.294 251.782 155.547 251.782C163.427 251.782 170.277 253.349 176.097 256.482C181.962 259.617 186.484 263.914 189.663 269.377C192.886 274.839 194.498 281.062 194.498 288.046C194.498 292.972 193.737 297.425 192.215 301.41C190.737 305.395 188.588 308.955 185.768 312.088C182.992 315.223 179.634 317.997 175.694 320.416C171.754 322.878 168.598 325.475 166.225 328.205C163.852 330.893 162.128 334.094 161.054 337.81C159.979 341.526 159.397 346.16 159.308 351.711V352.516H143.19ZM151.786 392.273C148.473 392.273 145.63 391.086 143.257 388.715C140.884 386.341 139.698 383.498 139.698 380.184C139.698 376.872 140.884 374.029 143.257 371.657C145.63 369.284 148.473 368.097 151.786 368.097C155.099 368.097 157.942 369.284 160.315 371.657C162.688 374.029 163.874 376.872 163.874 380.184C163.874 382.379 163.315 384.393 162.195 386.228C161.121 388.066 159.666 389.542 157.83 390.661C156.039 391.737 154.025 392.273 151.786 392.273Z" fill="#FFA98E"/>
<path d="M149.1 352.516H146.884V354.734H149.1V352.516ZM149.1 351.711L146.884 351.687L146.884 351.699V351.711H149.1ZM151.786 331.295L149.686 330.589L151.786 331.295ZM159.039 319.005L160.606 320.572L159.039 319.005ZM170.322 310.343L171.465 312.241L171.476 312.234L170.322 310.343ZM177.44 304.634L179.04 306.169L179.048 306.16L179.055 306.152L177.44 304.634ZM182.41 296.912L180.375 296.034L180.369 296.048L180.363 296.062L182.41 296.912ZM150.846 268.035L149.941 266.01L150.846 268.035ZM142.317 275.219L144.134 276.489L142.317 275.219ZM138.355 288.046V290.262H140.426L140.566 288.196L138.355 288.046ZM121.432 288.046L119.218 287.942L119.109 290.262H121.432V288.046ZM127.341 268.503L125.5 267.271L125.493 267.282L127.341 268.503ZM141.646 256.079L140.685 254.083L140.679 254.086L141.646 256.079ZM182.007 256.484L180.956 258.434L180.962 258.437L182.007 256.484ZM195.573 269.377L193.657 270.491L193.664 270.503L195.573 269.377ZM198.125 301.41L196.054 300.619L196.05 300.63L196.047 300.64L198.125 301.41ZM191.678 312.088L190.03 310.607L190.019 310.619L191.678 312.088ZM181.604 320.416L180.445 318.527L180.43 318.537L181.604 320.416ZM172.135 328.205L173.796 329.673L173.808 329.659L172.135 328.205ZM165.218 351.711L163.002 351.675L163.002 351.692V351.711H165.218ZM165.218 352.516V354.734H167.434V352.516H165.218ZM149.167 388.715L150.734 387.148L149.167 388.715ZM149.167 371.657L150.734 373.224L149.167 371.657ZM168.105 386.229L166.213 385.075L166.203 385.092L166.193 385.111L168.105 386.229ZM163.74 390.661L164.88 392.563L164.894 392.554L163.74 390.661ZM151.316 352.516V351.711H146.884V352.516H151.316ZM151.316 351.734C151.405 343.294 152.291 336.75 153.887 332.001L149.686 330.589C147.88 335.96 146.975 343.027 146.884 351.687L151.316 351.734ZM153.887 332.001C155.501 327.201 157.759 323.421 160.606 320.572L157.472 317.439C154.052 320.858 151.474 325.272 149.686 330.589L153.887 332.001ZM160.606 320.572C163.595 317.585 167.208 314.803 171.465 312.241L169.179 308.443C164.66 311.164 160.751 314.16 157.472 317.439L160.606 320.572ZM171.476 312.234C174.278 310.525 176.801 308.502 179.04 306.169L175.841 303.1C173.871 305.154 171.649 306.938 169.167 308.45L171.476 312.234ZM179.055 306.152C181.347 303.714 183.148 300.912 184.457 297.762L180.363 296.062C179.254 298.732 177.742 301.077 175.826 303.116L179.055 306.152ZM184.445 297.788C185.831 294.57 186.506 291.044 186.506 287.241H182.074C182.074 290.512 181.496 293.431 180.375 296.034L184.445 297.788ZM186.506 287.241C186.506 282.493 185.388 278.26 183.069 274.631L179.334 277.018C181.133 279.833 182.074 283.213 182.074 287.241H186.506ZM183.069 274.631C180.793 271.069 177.739 268.316 173.942 266.393L171.94 270.347C175.037 271.915 177.49 274.131 179.334 277.018L183.069 274.631ZM173.942 266.393C170.157 264.476 165.982 263.534 161.457 263.534V267.967C165.349 267.967 168.829 268.772 171.94 270.347L173.942 266.393ZM161.457 263.534C157.469 263.534 153.624 264.364 149.941 266.01L151.751 270.057C154.874 268.659 158.103 267.967 161.457 267.967V263.534ZM149.941 266.01C146.146 267.708 142.997 270.377 140.5 273.95L144.134 276.489C146.204 273.525 148.741 271.404 151.751 270.057L149.941 266.01ZM140.5 273.95C137.923 277.641 136.521 282.34 136.144 287.897L140.566 288.196C140.906 283.187 142.145 279.336 144.134 276.489L140.5 273.95ZM138.355 285.831H121.432V290.262H138.355V285.831ZM123.645 288.15C123.988 280.869 125.864 274.757 129.19 269.726L125.493 267.282C121.655 273.086 119.591 280.002 119.218 287.942L123.645 288.15ZM129.183 269.736C132.589 264.648 137.054 260.769 142.613 258.075L140.679 254.086C134.418 257.122 129.347 261.523 125.5 267.271L129.183 269.736ZM142.607 258.076C148.233 255.37 154.504 253.998 161.457 253.998V249.565C153.904 249.565 146.967 251.059 140.685 254.083L142.607 258.076ZM161.457 253.998C169.04 253.998 175.516 255.505 180.956 258.434L183.058 254.532C176.858 251.192 169.633 249.565 161.457 249.565V253.998ZM180.962 258.437C186.485 261.388 190.696 265.404 193.657 270.491L197.488 268.262C194.091 262.426 189.259 257.846 183.051 254.528L180.962 258.437ZM193.664 270.503C196.666 275.59 198.192 281.417 198.192 288.046H202.624C202.624 280.708 200.926 274.088 197.481 268.251L193.664 270.503ZM198.192 288.046C198.192 292.743 197.466 296.924 196.054 300.619L200.195 302.201C201.827 297.928 202.624 293.201 202.624 288.046H198.192ZM196.047 300.64C194.666 304.365 192.662 307.682 190.03 310.607L193.325 313.572C196.334 310.227 198.629 306.426 200.202 302.18L196.047 300.64ZM190.019 310.619C187.402 313.573 184.218 316.212 180.445 318.527L182.763 322.305C186.87 319.784 190.401 316.871 193.337 313.558L190.019 310.619ZM180.43 318.537C176.353 321.084 173.013 323.816 170.462 326.753L173.808 329.659C176.002 327.133 178.975 324.673 182.779 322.295L180.43 318.537ZM170.474 326.74C167.867 329.691 165.993 333.188 164.835 337.194L169.093 338.426C170.084 334.999 171.657 332.095 173.796 329.673L170.474 326.74ZM164.835 337.194C163.688 341.162 163.093 346.005 163.002 351.675L167.434 351.746C167.521 346.314 168.091 341.89 169.093 338.426L164.835 337.194ZM163.002 351.711V352.516H167.434V351.711H163.002ZM165.218 350.301H149.1V354.734H165.218V350.301ZM157.696 390.058C154.979 390.058 152.698 389.11 150.734 387.148L147.6 390.281C150.383 393.064 153.787 394.49 157.696 394.49V390.058ZM150.734 387.148C148.771 385.184 147.824 382.901 147.824 380.184H143.392C143.392 384.095 144.818 387.5 147.6 390.281L150.734 387.148ZM147.824 380.184C147.824 377.469 148.771 375.186 150.734 373.224L147.6 370.089C144.818 372.872 143.392 376.276 143.392 380.184H147.824ZM150.734 373.224C152.698 371.262 154.979 370.315 157.696 370.315V365.882C153.787 365.882 150.383 367.308 147.6 370.089L150.734 373.224ZM157.696 370.315C160.413 370.315 162.695 371.262 164.658 373.224L167.792 370.089C165.01 367.308 161.606 365.882 157.696 365.882V370.315ZM164.658 373.224C166.621 375.186 167.568 377.469 167.568 380.184H172.001C172.001 376.276 170.575 372.872 167.792 370.089L164.658 373.224ZM167.568 380.184C167.568 381.982 167.116 383.595 166.213 385.075L169.998 387.382C171.333 385.193 172.001 382.778 172.001 380.184H167.568ZM166.193 385.111C165.306 386.626 164.113 387.84 162.587 388.77L164.894 392.554C167.039 391.246 168.756 389.504 170.018 387.349L166.193 385.111ZM162.6 388.762C161.179 389.613 159.563 390.058 157.696 390.058V394.49C160.306 394.49 162.721 393.859 164.88 392.563L162.6 388.762Z" fill="#FF7269"/>
<path d="M325.353 310.879V310.074C325.441 301.523 326.338 294.717 328.039 289.658C329.741 284.599 332.157 280.503 335.292 277.368C338.425 274.235 342.187 271.346 346.574 268.706C349.216 267.094 351.588 265.191 353.692 262.996C355.797 260.758 357.454 258.184 358.663 255.274C359.915 252.363 360.543 249.14 360.543 245.602C360.543 241.215 359.513 237.41 357.454 234.187C355.394 230.963 352.641 228.478 349.194 226.732C345.747 224.986 341.918 224.113 337.709 224.113C334.038 224.113 330.502 224.874 327.098 226.396C323.696 227.919 320.853 230.314 318.57 233.582C316.287 236.85 314.966 241.126 314.607 246.409H297.683C298.042 238.798 300.012 232.284 303.594 226.866C307.22 221.449 311.989 217.308 317.898 214.442C323.852 211.577 330.457 210.145 337.709 210.145C345.589 210.145 352.44 211.711 358.26 214.845C364.124 217.979 368.647 222.277 371.825 227.739C375.049 233.201 376.66 239.425 376.66 246.409C376.66 251.334 375.899 255.788 374.377 259.773C372.899 263.758 370.751 267.318 367.931 270.451C365.155 273.586 361.796 276.36 357.856 278.779C353.916 281.24 350.76 283.838 348.387 286.568C346.014 289.256 344.291 292.456 343.217 296.173C342.141 299.889 341.56 304.523 341.47 310.074V310.879H325.353ZM333.949 350.636C330.636 350.636 327.792 349.449 325.421 347.078C323.047 344.704 321.861 341.861 321.861 338.547C321.861 335.235 323.047 332.392 325.421 330.02C327.792 327.647 330.636 326.46 333.949 326.46C337.261 326.46 340.105 327.647 342.478 330.02C344.851 332.392 346.036 335.235 346.036 338.547C346.036 340.742 345.478 342.758 344.359 344.591C343.283 346.429 341.829 347.905 339.994 349.024C338.202 350.1 336.187 350.636 333.949 350.636Z" fill="#8EBEFF"/>
<path d="M331.262 310.879H329.047V313.096H331.262V310.879ZM331.262 310.074L329.047 310.05V310.062V310.074H331.262ZM333.949 289.658L331.849 288.952L333.949 289.658ZM341.201 277.368L342.77 278.935L341.201 277.368ZM352.485 268.706L353.628 270.604L353.639 270.597L352.485 268.706ZM359.603 262.996L361.203 264.532L361.21 264.523L361.218 264.514L359.603 262.996ZM364.572 255.274L362.537 254.397L362.532 254.41L362.526 254.424L364.572 255.274ZM333.009 226.397L332.104 224.374L333.009 226.397ZM324.481 233.582L326.297 234.852L324.481 233.582ZM320.518 246.409V248.625H322.589L322.728 246.558L320.518 246.409ZM303.594 246.409L301.381 246.305L301.271 248.625H303.594V246.409ZM309.503 226.867L307.663 225.634L307.656 225.644L309.503 226.867ZM323.809 214.443L322.848 212.446L322.841 212.449L323.809 214.443ZM364.169 214.846L363.12 216.797L363.125 216.8L364.169 214.846ZM377.734 227.74L375.819 228.854L375.826 228.866L377.734 227.74ZM380.286 259.773L378.217 258.982L378.213 258.992L378.21 259.003L380.286 259.773ZM373.84 270.451L372.193 268.97L372.181 268.982L373.84 270.451ZM363.767 278.779L362.608 276.889L362.592 276.9L363.767 278.779ZM354.298 286.568L355.958 288.036L355.97 288.022L354.298 286.568ZM347.381 310.074L345.166 310.038L345.164 310.055V310.074H347.381ZM347.381 310.879V313.096H349.596V310.879H347.381ZM331.33 347.078L332.896 345.511L331.33 347.078ZM331.33 330.02L332.896 331.587L331.33 330.02ZM350.268 344.591L348.377 343.438L348.366 343.455L348.356 343.474L350.268 344.591ZM345.903 349.024L347.043 350.926L347.057 350.917L345.903 349.024ZM333.479 310.879V310.074H329.047V310.879H333.479ZM333.479 310.097C333.568 301.657 334.453 295.113 336.05 290.364L331.849 288.952C330.043 294.323 329.137 301.389 329.047 310.05L333.479 310.097ZM336.05 290.364C337.664 285.564 339.921 281.783 342.77 278.935L339.635 275.802C336.215 279.221 333.637 283.635 331.849 288.952L336.05 290.364ZM342.77 278.935C345.757 275.947 349.371 273.166 353.628 270.604L351.342 266.806C346.822 269.527 342.914 272.523 339.635 275.802L342.77 278.935ZM353.639 270.597C356.441 268.888 358.963 266.865 361.203 264.532L358.004 261.463C356.035 263.517 353.812 265.299 351.33 266.813L353.639 270.597ZM361.218 264.514C363.51 262.077 365.311 259.275 366.619 256.125L362.526 254.424C361.418 257.094 359.905 259.44 357.988 261.478L361.218 264.514ZM366.609 256.151C367.995 252.932 368.67 249.407 368.67 245.604H364.237C364.237 248.874 363.658 251.794 362.537 254.397L366.609 256.151ZM368.67 245.604C368.67 240.856 367.551 236.624 365.231 232.994L361.496 235.38C363.297 238.196 364.237 241.576 364.237 245.604H368.67ZM365.231 232.994C362.957 229.433 359.902 226.679 356.106 224.755L354.102 228.709C357.2 230.278 359.652 232.494 361.496 235.38L365.231 232.994ZM356.106 224.755C352.32 222.838 348.144 221.897 343.62 221.897V226.329C347.511 226.329 350.993 227.134 354.102 228.709L356.106 224.755ZM343.62 221.897C339.631 221.897 335.787 222.726 332.104 224.374L333.913 228.42C337.036 227.023 340.264 226.329 343.62 226.329V221.897ZM332.104 224.374C328.309 226.071 325.161 228.739 322.664 232.313L326.297 234.852C328.367 231.889 330.903 229.766 333.913 228.42L332.104 224.374ZM322.664 232.313C320.086 236.003 318.684 240.703 318.306 246.26L322.728 246.558C323.068 241.55 324.309 237.698 326.297 234.852L322.664 232.313ZM320.518 244.194H303.594V248.625H320.518V244.194ZM305.808 246.513C306.151 239.232 308.027 233.119 311.353 228.089L307.656 225.644C303.818 231.449 301.754 238.365 301.381 246.305L305.808 246.513ZM311.346 228.1C314.751 223.012 319.217 219.132 324.775 216.437L322.841 212.449C316.58 215.484 311.509 219.887 307.663 225.634L311.346 228.1ZM324.77 216.44C330.396 213.732 336.666 212.361 343.62 212.361V207.928C336.068 207.928 329.13 209.422 322.848 212.446L324.77 216.44ZM343.62 212.361C351.203 212.361 357.677 213.867 363.12 216.797L365.221 212.894C359.02 209.556 351.796 207.928 343.62 207.928V212.361ZM363.125 216.8C368.647 219.751 372.859 223.767 375.819 228.854L379.652 226.625C376.255 220.789 371.421 216.208 365.214 212.891L363.125 216.8ZM375.826 228.866C378.829 233.953 380.354 239.78 380.354 246.409H384.787C384.787 239.071 383.088 232.451 379.645 226.613L375.826 228.866ZM380.354 246.409C380.354 251.106 379.629 255.287 378.217 258.982L382.358 260.564C383.99 256.291 384.787 251.564 384.787 246.409H380.354ZM378.21 259.003C376.829 262.728 374.825 266.045 372.193 268.97L375.488 271.935C378.496 268.59 380.791 264.789 382.365 260.543L378.21 259.003ZM372.181 268.982C369.565 271.936 366.38 274.575 362.608 276.889L364.926 280.668C369.032 278.147 372.565 275.234 375.5 271.921L372.181 268.982ZM362.592 276.9C358.515 279.447 355.176 282.179 352.626 285.116L355.97 288.022C358.165 285.496 361.137 283.036 364.941 280.658L362.592 276.9ZM352.636 285.102C350.03 288.053 348.156 291.551 346.998 295.557L351.255 296.788C352.246 293.362 353.819 290.458 355.958 288.036L352.636 285.102ZM346.998 295.557C345.851 299.524 345.256 304.368 345.166 310.038L349.596 310.109C349.685 304.677 350.254 300.253 351.255 296.788L346.998 295.557ZM345.164 310.074V310.879H349.596V310.074H345.164ZM347.381 308.664H331.262V313.096H347.381V308.664ZM339.859 348.42C337.142 348.42 334.86 347.473 332.896 345.511L329.763 348.644C332.546 351.427 335.95 352.853 339.859 352.853V348.42ZM332.896 345.511C330.934 343.547 329.987 341.264 329.987 338.547H325.554C325.554 342.458 326.98 345.863 329.763 348.644L332.896 345.511ZM329.987 338.547C329.987 335.832 330.934 333.549 332.896 331.587L329.763 328.452C326.98 331.235 325.554 334.638 325.554 338.547H329.987ZM332.896 331.587C334.86 329.625 337.142 328.677 339.859 328.677V324.245C335.95 324.245 332.546 325.671 329.763 328.452L332.896 331.587ZM339.859 328.677C342.575 328.677 344.857 329.625 346.821 331.587L349.956 328.452C347.173 325.671 343.769 324.245 339.859 324.245V328.677ZM346.821 331.587C348.784 333.549 349.732 335.832 349.732 338.547H354.163C354.163 334.638 352.737 331.235 349.956 328.452L346.821 331.587ZM349.732 338.547C349.732 340.344 349.279 341.958 348.377 343.438L352.161 345.745C353.496 343.556 354.163 341.141 354.163 338.547H349.732ZM348.356 343.474C347.468 344.989 346.276 346.203 344.749 347.133L347.057 350.917C349.203 349.609 350.918 347.867 352.181 345.712L348.356 343.474ZM344.763 347.124C343.34 347.976 341.725 348.42 339.859 348.42V352.853C342.47 352.853 344.883 352.221 347.043 350.926L344.763 347.124Z" fill="#69A9FF"/>
<path d="M236.066 233.703V232.757C236.171 222.716 237.222 214.725 239.22 208.784C241.218 202.843 244.057 198.033 247.737 194.353C251.417 190.673 255.833 187.282 260.985 184.18C264.087 182.288 266.873 180.053 269.344 177.477C271.815 174.849 273.76 171.826 275.179 168.408C276.652 164.991 277.388 161.206 277.388 157.053C277.388 151.901 276.178 147.432 273.76 143.647C271.342 139.862 268.109 136.944 264.06 134.894C260.012 132.843 255.518 131.818 250.576 131.818C246.265 131.818 242.112 132.712 238.116 134.499C234.121 136.287 230.782 139.1 228.101 142.937C225.42 146.775 223.869 151.796 223.449 157.999H203.576C203.997 149.062 206.31 141.413 210.516 135.051C214.774 128.69 220.373 123.827 227.312 120.463C234.305 117.098 242.059 115.416 250.576 115.416C259.829 115.416 267.872 117.256 274.706 120.936C281.594 124.616 286.903 129.663 290.636 136.077C294.42 142.49 296.313 149.798 296.313 157.999C296.313 163.782 295.419 169.013 293.633 173.692C291.898 178.371 289.373 182.55 286.062 186.23C282.803 189.911 278.86 193.17 274.233 196.009C269.607 198.9 265.901 201.95 263.114 205.156C260.328 208.311 258.304 212.07 257.042 216.433C255.78 220.797 255.097 226.238 254.992 232.757V233.703H236.066ZM246.16 280.387C242.269 280.387 238.931 278.994 236.145 276.207C233.358 273.421 231.965 270.083 231.965 266.192C231.965 262.302 233.358 258.964 236.145 256.178C238.931 253.392 242.269 251.999 246.16 251.999C250.05 251.999 253.388 253.392 256.175 256.178C258.961 258.964 260.354 262.302 260.354 266.192C260.354 268.768 259.697 271.135 258.383 273.289C257.121 275.446 255.412 277.181 253.257 278.494C251.154 279.757 248.788 280.387 246.16 280.387Z" fill="#D9D9D9"/>
<path d="M243.005 233.703H240.403V236.306H243.005V233.703ZM243.005 232.757L240.403 232.73L240.403 232.743V232.757H243.005ZM246.16 208.784L243.693 207.955L246.16 208.784ZM254.676 194.353L256.516 196.193L254.676 194.353ZM267.925 184.18L269.267 186.41L269.28 186.402L267.925 184.18ZM276.284 177.477L278.162 179.279L278.171 179.269L278.18 179.26L276.284 177.477ZM282.118 168.409L279.729 167.379L279.722 167.395L279.716 167.41L282.118 168.409ZM245.056 134.5L243.993 132.124L245.056 134.5ZM235.041 142.937L237.174 144.428L235.041 142.937ZM230.388 157.999V160.602H232.82L232.984 158.175L230.388 157.999ZM210.516 157.999L207.916 157.877L207.788 160.602H210.516V157.999ZM217.455 135.051L215.293 133.604L215.285 133.616L217.455 135.051ZM234.252 120.463L233.124 118.118L233.117 118.121L234.252 120.463ZM281.646 120.936L280.412 123.227L280.42 123.231L281.646 120.936ZM297.576 136.077L295.326 137.386L295.334 137.399L297.576 136.077ZM300.572 173.692L298.142 172.763L298.136 172.775L298.131 172.787L300.572 173.692ZM293.001 186.23L291.067 184.49L291.053 184.505L293.001 186.23ZM281.173 196.009L279.812 193.791L279.794 193.802L281.173 196.009ZM270.054 205.156L272.004 206.879L272.018 206.863L270.054 205.156ZM261.931 232.757L259.329 232.715L259.329 232.736V232.757H261.931ZM261.931 233.703V236.306H264.534V233.703H261.931ZM243.084 276.207L244.924 274.368L243.084 276.207ZM243.084 256.178L244.924 258.017L243.084 256.178ZM265.322 273.289L263.1 271.934L263.088 271.955L263.076 271.976L265.322 273.289ZM260.196 278.494L261.535 280.727L261.551 280.716L260.196 278.494ZM245.608 233.703V232.757H240.403V233.703H245.608ZM245.608 232.784C245.711 222.872 246.752 215.188 248.626 209.614L243.693 207.955C241.572 214.262 240.51 222.559 240.403 232.73L245.608 232.784ZM248.626 209.614C250.522 203.977 253.173 199.537 256.516 196.193L252.836 192.513C248.82 196.529 245.793 201.71 243.693 207.955L248.626 209.614ZM256.516 196.193C260.026 192.684 264.268 189.419 269.267 186.41L266.582 181.951C261.276 185.145 256.687 188.662 252.836 192.513L256.516 196.193ZM269.28 186.402C272.57 184.394 275.533 182.02 278.162 179.279L274.406 175.676C272.093 178.087 269.483 180.181 266.569 181.959L269.28 186.402ZM278.18 179.26C280.871 176.396 282.986 173.106 284.523 169.407L279.716 167.41C278.414 170.545 276.638 173.301 274.387 175.695L278.18 179.26ZM284.509 169.438C286.136 165.66 286.929 161.519 286.929 157.053H281.724C281.724 160.893 281.046 164.323 279.729 167.379L284.509 169.438ZM286.929 157.053C286.929 151.479 285.616 146.508 282.892 142.246L278.507 145.048C280.62 148.356 281.724 152.323 281.724 157.053H286.929ZM282.892 142.246C280.221 138.064 276.635 134.831 272.176 132.572L269.824 137.215C273.461 139.058 276.342 141.659 278.507 145.048L282.892 142.246ZM272.176 132.572C267.732 130.321 262.828 129.216 257.515 129.216V134.421C262.086 134.421 266.172 135.366 269.824 137.215L272.176 132.572ZM257.515 129.216C252.832 129.216 248.317 130.189 243.993 132.124L246.118 136.875C249.785 135.235 253.576 134.421 257.515 134.421V129.216ZM243.993 132.124C239.537 134.118 235.839 137.251 232.907 141.447L237.174 144.428C239.604 140.949 242.583 138.456 246.118 136.875L243.993 132.124ZM232.907 141.447C229.88 145.78 228.234 151.298 227.792 157.823L232.984 158.175C233.383 152.293 234.839 147.77 237.174 144.428L232.907 141.447ZM230.388 155.397H210.516V160.602H230.388V155.397ZM213.115 158.122C213.518 149.57 215.72 142.394 219.626 136.487L215.285 133.616C210.778 140.432 208.355 148.553 207.916 157.877L213.115 158.122ZM219.618 136.499C223.617 130.525 228.86 125.969 235.387 122.804L233.117 118.121C225.765 121.686 219.81 126.856 215.293 133.604L219.618 136.499ZM235.38 122.808C241.987 119.628 249.351 118.018 257.515 118.018V112.813C248.647 112.813 240.501 114.568 233.124 118.118L235.38 122.808ZM257.515 118.018C266.42 118.018 274.024 119.787 280.412 123.227L282.88 118.645C275.6 114.724 267.116 112.813 257.515 112.813V118.018ZM280.42 123.231C286.905 126.696 291.849 131.411 295.326 137.386L299.824 134.768C295.836 127.914 290.161 122.536 282.873 118.641L280.42 123.231ZM295.334 137.399C298.86 143.373 300.65 150.215 300.65 157.999H305.855C305.855 149.381 303.861 141.608 299.816 134.754L295.334 137.399ZM300.65 157.999C300.65 163.513 299.798 168.423 298.142 172.763L303.003 174.621C304.92 169.603 305.855 164.051 305.855 157.999H300.65ZM298.131 172.787C296.511 177.161 294.158 181.056 291.067 184.49L294.935 187.971C298.469 184.045 301.164 179.581 303.011 174.597L298.131 172.787ZM291.053 184.505C287.98 187.974 284.242 191.073 279.812 193.791L282.535 198.227C287.356 195.268 291.504 191.847 294.949 187.956L291.053 184.505ZM279.794 193.802C275.007 196.794 271.085 200.002 268.089 203.45L272.018 206.863C274.595 203.897 278.086 201.007 282.552 198.216L279.794 193.802ZM268.103 203.434C265.042 206.899 262.842 211.007 261.482 215.71L266.482 217.156C267.645 213.133 269.493 209.723 272.004 206.879L268.103 203.434ZM261.482 215.71C260.135 220.368 259.437 226.056 259.329 232.715L264.533 232.799C264.636 226.42 265.305 221.225 266.482 217.156L261.482 215.71ZM259.329 232.757V233.703H264.534V232.757H259.329ZM261.931 231.101H243.005V236.306H261.931V231.101ZM253.099 277.784C249.909 277.784 247.23 276.672 244.924 274.368L241.244 278.048C244.511 281.315 248.509 282.989 253.099 282.989V277.784ZM244.924 274.368C242.619 272.063 241.507 269.382 241.507 266.192H236.302C236.302 270.782 237.977 274.781 241.244 278.048L244.924 274.368ZM241.507 266.192C241.507 263.003 242.619 260.323 244.924 258.017L241.244 254.337C237.977 257.604 236.302 261.601 236.302 266.192H241.507ZM244.924 258.017C247.23 255.713 249.909 254.601 253.099 254.601V249.397C248.509 249.397 244.511 251.071 241.244 254.337L244.924 258.017ZM253.099 254.601C256.289 254.601 258.969 255.713 261.274 258.017L264.954 254.337C261.687 251.071 257.69 249.397 253.099 249.397V254.601ZM261.274 258.017C263.58 260.323 264.691 263.003 264.691 266.192H269.896C269.896 261.601 268.222 257.604 264.954 254.337L261.274 258.017ZM264.691 266.192C264.691 268.302 264.161 270.196 263.1 271.934L267.544 274.644C269.113 272.073 269.896 269.237 269.896 266.192H264.691ZM263.076 271.976C262.035 273.756 260.634 275.18 258.842 276.273L261.551 280.716C264.07 279.181 266.086 277.136 267.568 274.604L263.076 271.976ZM258.858 276.263C257.188 277.264 255.291 277.784 253.099 277.784V282.989C256.164 282.989 258.999 282.248 261.535 280.727L258.858 276.263Z" fill="#C4C4C4"/>
</svg>
