<svg width="39" height="38" viewBox="0 0 39 38" fill="none" xmlns="http://www.w3.org/2000/svg">
<path d="M19.1667 0C14.6156 0.000188725 10.2129 1.6198 6.74665 4.56904C3.28037 7.51828 0.976596 11.6047 0.247558 16.0971C-0.481481 20.5895 0.411787 25.1947 2.76753 29.0888C5.12327 32.9828 8.78776 35.9116 13.1053 37.351C14.0636 37.5187 14.423 36.9438 14.423 36.4406C14.423 35.9854 14.399 34.476 14.399 32.8708C9.58339 33.7573 8.33756 31.6969 7.95422 30.6188C7.52887 29.5702 6.85458 28.641 5.98964 27.9114C5.3188 27.5521 4.36047 26.6656 5.96566 26.6417C6.57859 26.7082 7.16645 26.9215 7.67943 27.2635C8.19242 27.6054 8.61541 28.066 8.91256 28.6062C9.1747 29.0771 9.52719 29.4917 9.94984 29.8262C10.3725 30.1606 10.857 30.4084 11.3755 30.5553C11.8941 30.7022 12.4366 30.7453 12.9718 30.6822C13.5071 30.6191 14.0246 30.451 14.4948 30.1875C14.5778 29.2131 15.012 28.302 15.7167 27.624C11.4521 27.1448 6.99589 25.4916 6.99589 18.1605C6.96896 16.2556 7.67187 14.4126 8.96047 13.0094C8.37451 11.3538 8.44307 9.53697 9.15214 7.93026C9.15214 7.93026 10.7573 7.42712 14.423 9.89484C17.5592 9.03229 20.8701 9.03229 24.0063 9.89484C27.6719 7.40318 29.2771 7.93026 29.2771 7.93026C29.9863 9.53695 30.0549 11.3539 29.4688 13.0094C30.7613 14.4102 31.4648 16.2548 31.4334 18.1605C31.4334 25.5156 26.9532 27.1448 22.6886 27.624C23.146 28.0876 23.4983 28.6442 23.7215 29.2561C23.9448 29.8679 24.0337 30.5206 23.9824 31.1698C23.9824 33.7334 23.9584 35.7938 23.9584 36.4407C23.9584 36.9438 24.3178 37.5427 25.2761 37.3511C29.586 35.8999 33.24 32.9643 35.5857 29.0682C37.9314 25.1722 38.8162 20.5693 38.0821 16.0813C37.348 11.5932 35.0428 7.51213 31.578 4.56648C28.1133 1.62083 23.7144 0.0023669 19.1667 0Z" fill="#404040"/>
</svg>
