<svg width="512" height="512" viewBox="0 0 512 512" fill="none" xmlns="http://www.w3.org/2000/svg">
<g filter="url(#filter0_d_432_6)">
<rect x="20" y="21" width="471" height="471" rx="235.5" fill="#2C2C2C"/>
</g>
<g filter="url(#filter1_d_432_6)">
<path d="M187.083 353.934C186.758 353.087 197.468 344.681 205.875 339.184C207.375 338.202 210.362 336.197 212.513 334.725C214.664 333.254 216.744 332.051 217.136 332.051C217.527 332.051 217.954 331.809 218.085 331.515C218.374 330.864 222.723 327.77 223.349 327.77C223.595 327.77 226.118 326.165 228.956 324.204C234.197 320.58 236.09 319.926 236.699 321.528C237.05 322.454 235.328 329.272 232.869 336.688C232.088 339.042 230.689 343.493 229.76 346.579C227.829 352.99 227.879 352.927 223.947 354.044C219.553 355.291 187.567 355.196 187.083 353.934ZM364.202 353.994C363.613 353.499 362.376 350.044 361.454 346.316C360.53 342.59 359.03 337.615 358.121 335.261C357.212 332.907 356.084 329.054 355.615 326.7C354.576 321.484 349.263 302.076 343.996 284.256C339.235 268.148 336.143 254.63 336.705 252.388C337.049 251.02 345.575 243.899 351.931 239.673C360.406 234.035 369.073 228.173 376.325 223.177L385.238 217.034L389.763 217.398C393.102 217.666 395.72 218.482 399.753 220.513C404.568 222.938 405.608 223.834 408.488 228.039C411.507 232.448 411.82 233.328 412.59 239.588C413.048 243.316 413.422 251.441 413.422 257.642C413.422 271.169 412.308 277.579 409.303 281.328C406.667 284.617 400.212 288.533 397.403 288.547C393.55 288.567 393.213 289.204 394.479 294.085C395.874 299.471 400.227 312.066 402.176 316.357C402.979 318.122 404.344 322.135 405.211 325.273C406.076 328.412 407.958 334.77 409.391 339.404C412.305 348.826 412.694 352.972 410.748 353.881C408.519 354.921 365.428 355.027 364.202 353.994ZM392.742 272.664C394.039 271.781 395.69 270.256 396.408 269.276C399.15 265.536 400.085 252.283 398.031 246.259C395.581 239.066 386.665 232.472 378.825 232.055C375.499 231.878 375.245 231.984 375.069 233.628C374.964 234.598 376.19 239.084 377.794 243.595C379.398 248.107 382.275 256.401 384.189 262.024C387.486 271.716 388.67 274.269 389.864 274.269C390.15 274.269 391.445 273.548 392.742 272.664ZM241.592 353.671C240.022 353.353 239.925 353.079 240.301 350.001C240.525 348.171 242.492 341.127 244.674 334.347C246.854 327.568 248.64 321.407 248.64 320.658C248.64 319.908 248.926 319.118 249.275 318.902C249.623 318.686 250.125 317.625 250.39 316.542C251.393 312.446 254.386 307.214 257.156 304.711C260.027 302.118 272.562 293.53 273.479 293.53C273.746 293.528 275.745 292.13 277.924 290.419C280.103 288.71 283.094 286.737 284.572 286.035C286.052 285.334 288.138 283.883 289.209 282.811C290.281 281.739 292.425 280.211 293.974 279.415C295.523 278.618 297.734 276.974 298.886 275.761C300.038 274.549 301.42 273.557 301.956 273.557C302.492 273.557 304.11 272.753 305.554 271.772C310.512 268.403 311.88 269.839 310.391 276.851C308.06 287.824 289.974 352.3 288.934 353.342C288.398 353.88 244.142 354.186 241.592 353.671ZM168.09 331.873C160.693 310.359 154.749 294.227 153.906 293.386C153.604 293.083 147.745 292.363 140.886 291.783C128.911 290.771 123.913 289.707 120.428 287.422C118.409 286.099 118.298 283.543 120.238 283.036C121.022 282.831 121.664 282.402 121.664 282.082C121.664 281.762 122.295 281.298 123.066 281.053C123.837 280.809 126.693 279.321 129.412 277.747C134.321 274.905 134.388 274.888 138.486 275.646C144.097 276.684 148.06 276.631 148.05 275.518C148.046 275.027 147.562 273.042 146.974 271.105C146.387 269.167 146.074 267.053 146.28 266.407C146.751 264.921 167.976 249.91 174.372 246.537C175.397 245.996 177.038 244.829 178.019 243.941C178.999 243.055 180.461 242.131 181.266 241.889C184.296 240.977 185.175 242.794 188.847 257.553C190.792 265.374 192.664 272.897 193.005 274.269C193.346 275.642 194.106 278.532 194.692 280.689C196.135 285.998 198.596 295.29 199.638 299.355C200.106 301.187 200.679 302.875 200.911 303.106C201.46 303.655 204.686 293.027 206.849 283.543C207.789 279.423 209.031 274.929 209.61 273.557C210.189 272.183 211.22 268.491 211.901 265.352C212.582 262.214 213.396 259.004 213.71 258.219C214.024 257.434 216.25 248.928 218.657 239.315C225.538 211.833 226.055 210.565 231.669 207.388C233.745 206.214 236.246 204.448 237.226 203.464C238.207 202.48 241.111 200.52 243.679 199.109C246.249 197.698 249.764 195.333 251.491 193.854C253.219 192.375 257.057 189.548 260.018 187.572C266.849 183.016 277.311 175.954 278.244 175.27C281.374 172.974 283.248 172.204 285.238 172.397C287.343 172.601 287.503 172.798 287.331 174.982C287.226 176.282 286.545 178.529 285.815 179.975C284.62 182.337 281.862 190.47 277.782 203.648C276.992 206.198 275.769 209.569 275.062 211.138C274.354 212.708 272.92 217.142 271.874 220.994C268.644 232.872 247.081 294.472 242.62 304.554C241.242 307.673 240.211 308.787 236.576 311.087C229.707 315.433 204.698 332.483 197.992 337.393C191.274 342.311 183.139 347.743 182.494 347.743C182.264 347.743 181.025 348.547 179.739 349.526C175.254 352.948 175.426 353.209 168.09 331.873ZM258.837 293.05C258.583 292.387 259.989 287.081 262.003 281.102C263.996 275.186 267.135 265.852 268.979 260.358C270.823 254.867 273.45 247.323 274.818 243.595C279.136 231.832 289.287 202.223 292.18 192.948C295.229 183.18 297.447 176.323 298.999 171.873C300.5 167.575 302.39 167.268 327.369 167.268C351.532 167.268 352.397 167.417 353.551 171.792C353.981 173.423 356.741 181.967 359.684 190.778C365.127 207.075 368.377 215.185 369.82 216.077C370.261 216.349 370.622 217.363 370.622 218.329C370.622 220.071 367.972 222.394 361.735 226.118C360.421 226.903 356.987 229.146 354.105 231.102C351.223 233.059 348.355 234.986 347.73 235.383C347.107 235.78 344.295 237.63 341.482 239.494C338.669 241.358 335.604 242.883 334.671 242.883C332.927 242.883 332.924 242.877 331.656 236.284C331.409 235.009 330.956 233.645 330.648 233.253C330.34 232.86 329.874 231.255 329.61 229.685C328.79 224.802 327.099 219.342 326.404 219.342C325.475 219.342 321.086 234.79 319.641 243.148C319.378 244.667 318.867 246.434 318.503 247.071C318.139 247.71 317.154 250.157 316.315 252.513C314.437 257.773 311.192 261.052 302.547 266.422C299.075 268.58 294.11 271.669 291.518 273.288C288.925 274.907 285.309 277.555 283.48 279.174C281.653 280.792 279.864 282.116 279.505 282.116C279.145 282.116 274.863 284.84 269.988 288.171C260.706 294.51 259.586 295 258.837 293.05ZM110.686 278.169C110.085 277.568 109.444 276.043 109.262 274.781C107.739 264.247 107.389 259.741 107.393 250.772C107.4 234.331 109.113 228.14 115.117 222.855C118.204 220.138 123.616 217.915 127.144 217.915C128.403 217.915 128.798 217.516 128.798 216.243C128.798 214.285 126.701 208.13 124.58 203.861C123.761 202.212 123.091 200.431 123.091 199.902C123.091 199.373 121.467 193.821 119.483 187.563C117.498 181.305 115.689 174.516 115.463 172.477C115.063 168.863 115.104 168.755 117.11 168.197C119.426 167.552 156.743 167.681 161.433 168.349C163.679 168.67 164.465 169.105 164.465 170.028C164.465 170.714 164.936 171.898 165.512 172.66C166.088 173.421 166.57 174.862 166.582 175.86C166.595 176.859 168.856 185.847 171.607 195.834C181.229 230.769 181.306 231.113 179.991 233.87C179.218 235.49 177.775 236.798 175.59 237.856C173.802 238.721 170.808 240.767 168.937 242.404C167.066 244.041 164.091 246.108 162.325 247C160.559 247.891 156.095 250.876 152.403 253.633C144.124 259.816 143.192 259.842 141.432 253.938C138.546 244.261 135.652 235.881 134.786 234.696C132.57 231.666 125.979 235.683 124.074 241.226C122.71 245.191 122.06 254.684 122.942 257.737C123.359 259.179 124.36 262.515 125.166 265.149C125.972 267.784 126.45 270.413 126.228 270.991C125.683 272.412 121.874 274.988 116.175 277.79C112.594 279.553 112.103 279.586 110.686 278.169ZM231.194 197.326C230.775 196.007 234.475 180.481 236.988 173.009C238.139 169.589 238.589 169.046 240.727 168.501C243.599 167.769 273.251 168.096 274.021 168.868C274.311 169.16 273.936 170.083 273.186 170.918C271.33 172.987 253.981 185.293 250.341 187.123C248.725 187.935 246.478 189.357 245.347 190.283C244.215 191.208 241.844 192.795 240.079 193.809C238.313 194.824 236.256 196.329 235.51 197.154C233.829 199.011 231.755 199.094 231.194 197.326Z" fill="black" fill-opacity="0.25" shape-rendering="crispEdges"/>
</g>
<path d="M177.883 344.735C177.558 343.888 188.268 335.482 196.676 329.984C198.176 329.003 201.163 326.998 203.314 325.526C205.465 324.055 207.545 322.851 207.936 322.851C208.328 322.851 208.755 322.61 208.886 322.315C209.175 321.665 213.524 318.571 214.15 318.571C214.396 318.571 216.919 316.966 219.756 315.004C224.998 311.381 226.891 310.727 227.499 312.329C227.851 313.254 226.128 320.073 223.669 327.488C222.889 329.842 221.49 334.294 220.561 337.38C218.63 343.791 218.68 343.728 214.747 344.845C210.353 346.092 178.368 345.997 177.883 344.735ZM355.003 344.795C354.414 344.3 353.177 340.845 352.254 337.117C351.33 333.391 349.831 328.416 348.922 326.062C348.013 323.708 346.885 319.854 346.416 317.5C345.377 312.285 340.063 292.877 334.797 275.057C330.036 258.949 326.944 245.431 327.506 243.188C327.85 241.82 336.376 234.7 342.731 230.473C351.207 224.835 359.874 218.974 367.126 213.977L376.039 207.835L380.564 208.198C383.902 208.466 386.521 209.283 390.553 211.314C395.369 213.738 396.409 214.634 399.288 218.84C402.308 223.248 402.621 224.129 403.391 230.389C403.848 234.117 404.223 242.242 404.223 248.443C404.223 261.97 403.108 268.38 400.104 272.129C397.467 275.418 391.013 279.334 388.204 279.348C384.351 279.367 384.014 280.005 385.279 284.886C386.674 290.272 391.028 302.866 392.977 307.157C393.78 308.923 395.145 312.936 396.012 316.074C396.877 319.213 398.758 325.571 400.191 330.205C403.105 339.627 403.495 343.773 401.549 344.682C399.32 345.722 356.229 345.828 355.003 344.795ZM383.543 263.465C384.84 262.582 386.49 261.057 387.209 260.077C389.951 256.337 390.886 243.084 388.832 237.06C386.382 229.866 377.466 223.273 369.626 222.856C366.3 222.679 366.046 222.785 365.869 224.429C365.765 225.399 366.991 229.885 368.595 234.396C370.198 238.908 373.076 247.202 374.989 252.825C378.287 262.517 379.471 265.07 380.665 265.07C380.95 265.07 382.246 264.348 383.543 263.465ZM232.393 344.472C230.823 344.153 230.726 343.88 231.102 340.801C231.325 338.971 233.293 331.928 235.475 325.148C237.655 318.369 239.441 312.208 239.441 311.459C239.441 310.709 239.727 309.919 240.075 309.703C240.424 309.487 240.925 308.426 241.191 307.343C242.194 303.247 245.186 298.015 247.957 295.511C250.827 292.919 263.363 284.331 264.279 284.331C264.547 284.329 266.546 282.931 268.725 281.22C270.903 279.511 273.894 277.537 275.373 276.835C276.852 276.135 278.939 274.684 280.01 273.612C281.082 272.54 283.226 271.012 284.775 270.216C286.324 269.419 288.535 267.774 289.687 266.562C290.839 265.349 292.22 264.357 292.756 264.357C293.292 264.357 294.911 263.554 296.354 262.573C301.313 259.204 302.681 260.64 301.192 267.652C298.861 278.625 280.775 343.101 279.735 344.143C279.199 344.68 234.943 344.987 232.393 344.472ZM158.891 322.673C151.494 301.16 145.549 285.028 144.707 284.187C144.405 283.884 138.546 283.163 131.687 282.584C119.712 281.572 114.714 280.507 111.228 278.223C109.21 276.9 109.099 274.344 111.038 273.837C111.823 273.631 112.465 273.202 112.465 272.882C112.465 272.562 113.096 272.099 113.867 271.854C114.637 271.61 117.493 270.122 120.213 268.547C125.122 265.706 125.189 265.689 129.286 266.447C134.898 267.484 138.861 267.432 138.851 266.319C138.847 265.828 138.363 263.843 137.775 261.905C137.188 259.968 136.875 257.854 137.08 257.208C137.552 255.722 158.776 240.711 165.173 237.338C166.198 236.797 167.839 235.63 168.819 234.742C169.8 233.856 171.262 232.932 172.067 232.69C175.097 231.778 175.975 233.594 179.648 248.354C181.593 256.175 183.464 263.698 183.806 265.07C184.147 266.443 184.906 269.333 185.493 271.49C186.936 276.799 189.397 286.091 190.438 290.156C190.907 291.987 191.48 293.675 191.711 293.906C192.261 294.456 195.487 283.828 197.65 274.344C198.59 270.223 199.832 265.73 200.411 264.357C200.99 262.983 202.021 259.292 202.702 256.153C203.383 253.015 204.197 249.805 204.511 249.02C204.825 248.235 207.051 239.729 209.458 230.116C216.338 202.634 216.856 201.366 222.47 198.189C224.546 197.015 227.046 195.249 228.026 194.265C229.008 193.28 231.911 191.321 234.48 189.91C237.05 188.499 240.565 186.134 242.292 184.655C244.019 183.176 247.857 180.349 250.818 178.373C257.649 173.817 268.111 166.755 269.045 166.07C272.175 163.774 274.048 163.005 276.039 163.198C278.143 163.402 278.303 163.599 278.131 165.783C278.027 167.083 277.346 169.33 276.615 170.776C275.421 173.138 272.662 181.271 268.583 194.449C267.793 196.999 266.57 200.37 265.863 201.939C265.155 203.508 263.721 207.943 262.674 211.794C259.445 223.673 237.882 285.273 233.421 295.354C232.043 298.474 231.011 299.588 227.377 301.888C220.507 306.233 195.499 323.283 188.793 328.194C182.074 333.111 173.94 338.544 173.295 338.544C173.065 338.544 171.825 339.347 170.539 340.327C166.055 343.749 166.227 344.01 158.891 322.673ZM249.638 283.85C249.384 283.188 250.79 277.882 252.804 271.902C254.797 265.987 257.936 256.652 259.78 251.159C261.623 245.668 264.251 238.124 265.619 234.396C269.937 222.632 280.088 193.024 282.981 183.749C286.03 173.981 288.248 167.124 289.8 162.674C291.301 158.375 293.191 158.068 318.17 158.068C342.333 158.068 343.198 158.218 344.352 162.593C344.782 164.224 347.542 172.768 350.485 181.579C355.928 197.876 359.177 205.986 360.621 206.878C361.062 207.15 361.423 208.164 361.423 209.129C361.423 210.872 358.773 213.195 352.535 216.919C351.222 217.704 347.788 219.946 344.906 221.903C342.023 223.86 339.156 225.787 338.531 226.184C337.907 226.581 335.096 228.431 332.283 230.295C329.47 232.159 326.405 233.684 325.472 233.684C323.728 233.684 323.725 233.677 322.456 227.085C322.21 225.809 321.757 224.446 321.449 224.053C321.141 223.661 320.675 222.056 320.41 220.485C319.591 215.602 317.899 210.143 317.205 210.143C316.276 210.143 311.887 225.59 310.442 233.949C310.179 235.468 309.667 237.235 309.303 237.872C308.94 238.511 307.955 240.958 307.116 243.314C305.237 248.574 301.992 251.852 293.348 257.223C289.875 259.381 284.911 262.47 282.318 264.089C279.726 265.707 276.11 268.356 274.281 269.974C272.454 271.593 270.665 272.917 270.305 272.917C269.946 272.917 265.664 275.641 260.788 278.972C251.507 285.311 250.387 285.801 249.638 283.85ZM101.487 268.97C100.886 268.369 100.245 266.844 100.063 265.582C98.5401 255.047 98.1893 250.542 98.1934 241.573C98.2009 225.131 99.9141 218.941 105.918 213.656C109.005 210.939 114.417 208.716 117.945 208.716C119.204 208.716 119.599 208.317 119.599 207.044C119.599 205.086 117.502 198.931 115.381 194.662C114.562 193.013 113.892 191.232 113.892 190.703C113.892 190.174 112.268 184.621 110.283 178.363C108.299 172.105 106.49 165.317 106.264 163.278C105.863 159.663 105.905 159.556 107.911 158.998C110.227 158.353 147.544 158.482 152.234 159.15C154.479 159.47 155.266 159.906 155.266 160.829C155.266 161.515 155.737 162.699 156.313 163.46C156.889 164.222 157.371 165.662 157.383 166.661C157.396 167.66 159.657 176.648 162.407 186.635C172.03 221.569 172.106 221.914 170.792 224.671C170.019 226.291 168.576 227.599 166.391 228.657C164.603 229.522 161.609 231.568 159.738 233.205C157.867 234.842 154.891 236.909 153.126 237.801C151.36 238.692 146.896 241.677 143.204 244.434C134.925 250.617 133.993 250.643 132.233 244.739C129.347 235.062 126.453 226.682 125.587 225.497C123.371 222.466 116.78 226.484 114.874 232.027C113.511 235.992 112.861 245.485 113.743 248.538C114.16 249.98 115.161 253.315 115.967 255.95C116.773 258.585 117.251 261.214 117.029 261.792C116.484 263.213 112.675 265.789 106.976 268.591C103.394 270.353 102.904 270.386 101.487 268.97ZM221.994 188.126C221.576 186.808 225.276 171.282 227.789 163.81C228.94 160.39 229.39 159.847 231.528 159.302C234.4 158.57 264.051 158.897 264.821 159.669C265.111 159.961 264.737 160.883 263.986 161.719C262.131 163.787 244.782 176.093 241.141 177.924C239.526 178.736 237.279 180.158 236.148 181.083C235.016 182.009 232.645 183.596 230.88 184.61C229.113 185.624 227.057 187.13 226.311 187.955C224.63 189.812 222.556 189.895 221.994 188.126Z" fill="white"/>
<defs>
<filter id="filter0_d_432_6" x="4" y="9" width="503" height="503" filterUnits="userSpaceOnUse" color-interpolation-filters="sRGB">
<feFlood flood-opacity="0" result="BackgroundImageFix"/>
<feColorMatrix in="SourceAlpha" type="matrix" values="0 0 0 0 0 0 0 0 0 0 0 0 0 0 0 0 0 0 127 0" result="hardAlpha"/>
<feOffset dy="4"/>
<feGaussianBlur stdDeviation="8"/>
<feComposite in2="hardAlpha" operator="out"/>
<feColorMatrix type="matrix" values="0 0 0 0 0 0 0 0 0 0 0 0 0 0 0 0 0 0 0.25 0"/>
<feBlend mode="normal" in2="BackgroundImageFix" result="effect1_dropShadow_432_6"/>
<feBlend mode="normal" in="SourceGraphic" in2="effect1_dropShadow_432_6" result="shape"/>
</filter>
<filter id="filter1_d_432_6" x="97.3926" y="162.268" width="326.029" height="207.664" filterUnits="userSpaceOnUse" color-interpolation-filters="sRGB">
<feFlood flood-opacity="0" result="BackgroundImageFix"/>
<feColorMatrix in="SourceAlpha" type="matrix" values="0 0 0 0 0 0 0 0 0 0 0 0 0 0 0 0 0 0 127 0" result="hardAlpha"/>
<feOffset dy="5"/>
<feGaussianBlur stdDeviation="5"/>
<feComposite in2="hardAlpha" operator="out"/>
<feColorMatrix type="matrix" values="0 0 0 0 0 0 0 0 0 0 0 0 0 0 0 0 0 0 0.25 0"/>
<feBlend mode="normal" in2="BackgroundImageFix" result="effect1_dropShadow_432_6"/>
<feBlend mode="normal" in="SourceGraphic" in2="effect1_dropShadow_432_6" result="shape"/>
</filter>
</defs>
</svg>
