<svg width="678" height="678" viewBox="0 0 678 678" fill="none" xmlns="http://www.w3.org/2000/svg">
<path d="M192.564 526.21C191.956 524.628 211.975 508.916 227.689 498.641C230.493 496.807 236.076 493.057 240.097 490.307C244.118 487.557 248.005 485.307 248.737 485.307C249.468 485.307 250.266 484.857 250.511 484.307C251.051 483.091 259.181 477.307 260.35 477.307C260.81 477.307 265.526 474.307 270.83 470.641C280.627 463.868 284.165 462.645 285.303 465.641C285.959 467.37 282.739 480.114 278.144 493.974C276.685 498.374 274.07 506.695 272.333 512.464C268.725 524.448 268.818 524.329 261.467 526.416C253.254 528.748 193.469 528.569 192.564 526.21V526.21ZM523.622 526.324C522.522 525.398 520.21 518.941 518.485 511.974C516.759 505.007 513.957 495.707 512.257 491.307C510.558 486.907 508.45 479.707 507.573 475.307C505.629 465.558 495.698 429.28 485.855 395.974C476.957 365.865 471.176 340.597 472.228 336.408C472.869 333.852 488.806 320.541 500.685 312.641C516.526 302.104 532.727 291.149 546.281 281.808L562.941 270.328L571.398 271.007C577.639 271.508 582.533 273.034 590.072 276.83C599.072 281.362 601.016 283.036 606.399 290.896C612.043 299.138 612.627 300.782 614.065 312.484C614.921 319.451 615.622 334.637 615.622 346.23C615.622 371.513 613.538 383.495 607.923 390.501C602.995 396.648 590.93 403.968 585.681 403.994C578.478 404.031 577.848 405.223 580.212 414.346C582.821 424.413 590.958 447.952 594.602 455.974C596.101 459.274 598.653 466.774 600.272 472.641C601.892 478.507 605.408 490.392 608.086 499.051C613.533 516.664 614.259 524.413 610.622 526.112C606.458 528.057 525.914 528.253 523.622 526.324V526.324ZM576.969 374.307C579.393 372.657 582.476 369.807 583.82 367.974C588.944 360.983 590.692 336.212 586.855 324.952C582.274 311.507 565.607 299.182 550.955 298.404C544.738 298.073 544.265 298.272 543.934 301.345C543.739 303.158 546.031 311.541 549.028 319.974C552.025 328.407 557.403 343.908 560.979 354.42C567.143 372.535 569.355 377.307 571.588 377.307C572.123 377.307 574.544 375.957 576.969 374.307V374.307ZM294.45 525.719C291.514 525.125 291.334 524.613 292.036 518.859C292.454 515.439 296.131 502.273 300.208 489.602C304.286 476.93 307.622 465.416 307.622 464.014C307.622 462.612 308.155 461.135 308.808 460.732C309.46 460.329 310.399 458.344 310.894 456.32C312.769 448.665 318.361 438.885 323.539 434.207C328.904 429.36 352.337 413.308 354.05 413.307C354.548 413.306 358.286 410.691 362.358 407.495C366.429 404.298 372.021 400.61 374.785 399.299C377.549 397.987 381.448 395.276 383.451 393.273C385.454 391.27 389.462 388.414 392.357 386.925C395.253 385.436 399.384 382.363 401.538 380.096C403.692 377.829 406.274 375.974 407.275 375.974C408.277 375.974 411.304 374.474 414.002 372.641C423.27 366.343 425.827 369.027 423.043 382.133C418.686 402.643 384.881 523.157 382.938 525.104C381.936 526.109 299.214 526.683 294.45 525.719V525.719ZM157.064 484.974C143.239 444.763 132.127 414.613 130.553 413.038C129.988 412.474 119.037 411.126 106.217 410.043C83.8344 408.152 74.4914 406.161 67.9771 401.893C64.2038 399.42 63.9968 394.642 67.6219 393.694C69.0886 393.31 70.2886 392.507 70.2886 391.908C70.2886 391.31 71.4674 390.446 72.9082 389.989C74.3489 389.532 79.6872 386.749 84.7709 383.806C93.9451 378.495 94.0715 378.465 101.73 379.881C112.218 381.82 119.626 381.72 119.607 379.641C119.599 378.724 118.695 375.012 117.596 371.392C116.498 367.772 115.914 363.821 116.298 362.611C117.179 359.835 156.85 331.776 168.807 325.472C170.722 324.462 173.789 322.28 175.622 320.622C177.455 318.963 180.187 317.237 181.692 316.784C187.356 315.082 188.997 318.474 195.861 346.064C199.498 360.681 202.995 374.741 203.634 377.307C204.272 379.874 205.691 385.274 206.787 389.307C209.484 399.231 214.085 416.598 216.03 424.197C216.907 427.62 217.977 430.774 218.41 431.206C219.437 432.234 225.467 412.369 229.51 394.641C231.266 386.941 233.588 378.541 234.67 375.974C235.752 373.407 237.679 366.507 238.952 360.641C240.226 354.774 241.747 348.774 242.334 347.307C242.921 345.841 247.082 329.941 251.58 311.974C264.441 260.607 265.408 258.236 275.902 252.298C279.781 250.103 284.455 246.802 286.289 244.963C288.122 243.123 293.55 239.46 298.351 236.823C303.152 234.185 309.722 229.765 312.952 227.001C316.181 224.236 323.353 218.953 328.889 215.26C341.656 206.744 361.211 193.544 362.955 192.264C368.807 187.973 372.308 186.535 376.029 186.895C379.964 187.276 380.262 187.644 379.939 191.727C379.746 194.157 378.471 198.357 377.105 201.06C374.874 205.475 369.717 220.676 362.093 245.307C360.617 250.074 358.329 256.374 357.008 259.307C355.687 262.241 353.005 270.53 351.048 277.728C345.013 299.93 304.706 415.068 296.372 433.913C293.794 439.743 291.866 441.827 285.072 446.125C272.233 454.248 225.49 486.117 212.955 495.293C200.397 504.486 185.193 514.641 183.987 514.641C183.558 514.641 181.24 516.141 178.837 517.974C170.454 524.368 170.776 524.855 157.064 484.974ZM326.683 412.411C326.207 411.172 328.835 401.254 332.601 390.078C336.326 379.021 342.193 361.574 345.638 351.307C349.083 341.041 353.995 326.941 356.552 319.974C364.624 297.986 383.597 242.643 389.005 225.307C394.702 207.049 398.849 194.233 401.751 185.916C404.555 177.881 408.09 177.307 454.775 177.307C499.94 177.307 501.558 177.587 503.714 185.765C504.518 188.813 509.676 204.782 515.178 221.252C525.353 251.713 531.427 266.872 534.123 268.538C534.947 269.048 535.622 270.942 535.622 272.747C535.622 276.004 530.668 280.346 519.01 287.307C516.554 288.774 510.137 292.967 504.75 296.624C499.363 300.282 494.001 303.882 492.836 304.624C491.67 305.367 486.414 308.824 481.155 312.307C475.897 315.791 470.169 318.641 468.426 318.641C465.165 318.641 465.16 318.632 462.788 306.307C462.329 303.924 461.483 301.374 460.907 300.641C460.331 299.907 459.458 296.907 458.966 293.974C457.434 284.846 454.271 274.641 452.974 274.641C451.237 274.641 443.033 303.515 440.332 319.138C439.841 321.978 438.884 325.278 438.205 326.472C437.526 327.665 435.685 332.241 434.115 336.641C430.604 346.475 424.541 352.603 408.382 362.641C401.89 366.674 392.613 372.449 387.767 375.473C382.92 378.498 376.16 383.448 372.744 386.473C369.328 389.499 365.984 391.974 365.312 391.974C364.641 391.974 356.636 397.067 347.523 403.291C330.177 415.14 328.082 416.057 326.683 412.411V412.411ZM49.7695 384.598C48.646 383.474 47.4476 380.624 47.1066 378.265C44.261 358.575 43.6054 350.153 43.6131 333.388C43.6272 302.658 46.8291 291.086 58.0515 281.208C63.8208 276.129 73.9369 271.974 80.5306 271.974C82.884 271.974 83.6219 271.228 83.6219 268.849C83.6219 265.189 79.7031 253.684 75.7388 245.705C74.2078 242.624 72.9552 239.294 72.9552 238.306C72.9552 237.317 69.9201 226.938 66.2105 215.241C62.5009 203.544 59.1203 190.856 58.6979 187.044C57.9493 180.289 58.0266 180.088 61.776 179.044C66.1048 177.84 135.855 178.08 144.622 179.33C148.819 179.928 150.289 180.742 150.289 182.468C150.289 183.749 151.169 185.962 152.246 187.386C153.323 188.809 154.223 191.501 154.246 193.368C154.269 195.235 158.495 212.035 163.637 230.702C181.623 295.999 181.766 296.644 179.309 301.795C177.864 304.826 175.166 307.269 171.083 309.246C167.741 310.863 162.145 314.689 158.648 317.747C155.15 320.805 149.589 324.671 146.289 326.337C142.989 328.003 134.644 333.583 127.744 338.735C112.269 350.293 110.527 350.342 107.237 339.307C101.843 321.217 96.4336 305.555 94.8147 303.341C90.6731 297.677 78.3534 305.186 74.7922 315.545C72.2435 322.958 71.0278 340.701 72.6776 346.406C73.457 349.102 75.3274 355.337 76.8341 360.261C78.3407 365.186 79.2339 370.1 78.819 371.182C77.8005 373.836 70.6808 378.651 60.0284 383.89C53.334 387.182 52.4171 387.245 49.7695 384.598V384.598ZM275.013 233.49C274.231 231.026 281.147 202.005 285.844 188.039C287.994 181.647 288.836 180.632 292.832 179.613C298.2 178.245 353.622 178.856 355.061 180.299C355.605 180.845 354.904 182.569 353.503 184.13C350.034 187.997 317.606 210.999 310.8 214.42C307.781 215.938 303.581 218.595 301.467 220.325C299.352 222.055 294.921 225.022 291.62 226.918C288.319 228.813 284.476 231.627 283.08 233.169C279.939 236.641 276.062 236.795 275.013 233.49V233.49Z" fill="white"/>
</svg>
