<?xml version="1.0" encoding="UTF-8" standalone="no"?>
<!-- Created with Inkscape (http://www.inkscape.org/) -->

<svg
   version="1.1"
   id="svg2"
   width="677.33331"
   height="677.33331"
   viewBox="0 0 677.33331 677.33331"
   sodipodi:docname="Frame_51-removebg-preview 1.svg"
   inkscape:version="1.1.1 (3bf5ae0d25, 2021-09-20)"
   xmlns:inkscape="http://www.inkscape.org/namespaces/inkscape"
   xmlns:sodipodi="http://sodipodi.sourceforge.net/DTD/sodipodi-0.dtd"
   xmlns="http://www.w3.org/2000/svg"
   xmlns:svg="http://www.w3.org/2000/svg">
  <defs
     id="defs6" />
  <sodipodi:namedview
     id="namedview4"
     pagecolor="#ffffff"
     bordercolor="#666666"
     borderopacity="1.0"
     inkscape:pageshadow="2"
     inkscape:pageopacity="0.0"
     inkscape:pagecheckerboard="0"
     showgrid="false"
     inkscape:zoom="0.32"
     inkscape:cx="1718.75"
     inkscape:cy="231.25"
     inkscape:window-width="1920"
     inkscape:window-height="1011"
     inkscape:window-x="1920"
     inkscape:window-y="32"
     inkscape:window-maximized="1"
     inkscape:current-layer="g8" />
  <g
     inkscape:groupmode="layer"
     inkscape:label="Image"
     id="g8">
    <g
       id="g1586"
       transform="translate(504.60783,-15.083515)"
       style="fill:#1a1a1a">
      <path
         style="fill:#1a1a1a;stroke-width:1.33333"
         d="m -312.04426,541.29355 c -0.60714,-1.58216 19.41097,-17.29395 35.12549,-27.56928 2.8038,-1.83334 8.38737,-5.58334 12.40793,-8.33334 4.02056,-2.75 7.90843,-5 8.63971,-5 0.73128,0 1.5296,-0.45 1.77405,-1 0.54068,-1.21653 8.66994,-7 9.83922,-7 0.45985,0 5.17574,-3 10.47976,-6.66666 9.79745,-6.77298 13.33562,-7.99531 14.47305,-5 0.65659,1.72906 -2.56363,14.47348 -7.15917,28.33333 -1.45892,4.4 -4.07384,12.72071 -5.81095,18.49045 -3.608,11.9839 -3.51509,11.86459 -10.86549,13.95144 -8.21275,2.33168 -67.9984,2.15298 -68.9036,-0.20594 z m 331.058309,0.11426 c -1.1,-0.92594 -3.4118,-7.38354 -5.1373,-14.35021 -1.7255,-6.96667 -4.5277995,-16.26667 -6.2272995,-20.66667 -1.6995,-4.4 -3.8076,-11.6 -4.6847,-16 -1.9434,-9.7493 -11.8743,-46.02694 -21.7174005,-79.33333 -8.898,-30.10865 -14.6789,-55.37669 -13.6275,-59.56561 0.6416,-2.55629 16.5785,-15.86705 28.4570005,-23.76772 15.8413995,-10.53655 32.0424995,-21.49161 45.5965995,-30.8322 l 16.6595,-11.48054 8.4575,0.67889 c 6.2408,0.50095 11.135,2.02711 18.6738,5.82303 9.0001,4.53169 10.9439,6.20637 16.326401,14.06575 5.6448,8.24228 6.2285,9.8861 7.6667,21.58876 0.8562,6.96695 1.5567,22.15246 1.5567,33.74558 0,25.28265 -2.0839,37.26481 -7.6994,44.27086 -4.927301,6.14744 -16.992601,13.46722 -22.241601,13.49362 -7.2027,0.0363 -7.8327,1.2287 -5.4687,10.35164 2.6086,10.06702 10.7456,33.60602 14.3899,41.62794 1.4992,3.3 4.0508,10.8 5.6703,16.66667 1.6195,5.86666 5.135601,17.75152 7.813701,26.41077 5.4469,17.61229 6.1731,25.36161 2.5358,27.06032 -4.1642,1.94479 -84.708401,2.14147 -87.000001,0.21245 z m 53.3469,-152.01687 c 2.4243,-1.65 5.5074,-4.5 6.8512,-6.33334 5.1243,-6.99105 6.8718,-31.76168 3.0351,-43.02185 -4.5811,-13.44485 -21.2477,-25.77003 -35.8999,-26.54855 -6.217,-0.33033 -6.6906,-0.13196 -7.0213,2.94143 -0.1951,1.8126 2.0972,10.19564 5.094,18.62897 2.9967,8.43334 8.3748,23.93392 11.9513,34.44574 6.1634,18.11505 8.3755,22.8876 10.6088,22.8876 0.5351,0 2.9564,-1.35 5.3808,-3 z M -210.15804,540.80237 c -2.93568,-0.59416 -3.11554,-1.10538 -2.41352,-6.86005 0.4172,-3.41993 4.09463,-16.58559 8.17207,-29.257 4.07744,-12.67143 7.41352,-24.18601 7.41352,-25.58799 0,-1.40196 0.53353,-2.87876 1.18563,-3.28177 0.65209,-0.40303 1.59109,-2.38843 2.08665,-4.41203 1.87467,-7.65497 7.46724,-17.43478 12.64512,-22.11269 5.36489,-4.84685 28.79767,-20.89916 30.51041,-20.90074 0.49804,-4.6e-4 4.23654,-2.61586 8.30779,-5.81198 4.07124,-3.19613 9.66351,-6.88417 12.42727,-8.19565 2.76374,-1.31149 6.66361,-4.02313 8.66636,-6.02589 2.00274,-2.00275 6.01048,-4.85938 8.90606,-6.34806 2.89559,-1.48868 7.02696,-4.56165 9.18083,-6.82881 2.15387,-2.26716 4.735699,-4.12211 5.737399,-4.12211 1.0017,0 4.0287,-1.5 6.7267,-3.33333 9.2683,-6.29795 11.825,-3.61369 9.041,9.49211 -4.3568,20.50997 -38.162529,141.02462 -40.105109,142.97146 -1.00219,1.00437 -83.72362,1.57887 -88.48818,0.61453 z M -347.5436,500.0576 c -13.82526,-40.21073 -24.9371,-70.3614 -26.51149,-71.93578 -0.56457,-0.56458 -11.5159,-1.91252 -24.33627,-2.99546 -22.38217,-1.8906 -31.72517,-3.88193 -38.23945,-8.15025 -3.77325,-2.47233 -3.98025,-7.25085 -0.35516,-8.19884 1.46667,-0.38355 2.66667,-1.18693 2.66667,-1.78532 0,-0.59839 1.17881,-1.46212 2.61958,-1.9194 1.44076,-0.45728 6.77899,-3.23955 11.86271,-6.1828 9.17425,-5.31151 9.30065,-5.34076 16.95864,-3.92511 10.48826,1.93887 17.89598,1.83927 17.87797,-0.24037 -0.008,-0.91667 -0.91289,-4.62847 -2.011,-8.24844 -1.09811,-3.61999 -1.68244,-7.57148 -1.29852,-8.78111 0.88108,-2.77606 40.5525,-30.83553 52.50898,-37.13944 1.9149,-1.0096 4.98164,-3.1922 6.81497,-4.8502 1.83333,-1.65801 4.56481,-3.38478 6.06995,-3.83728 5.66365,-1.70266 7.30558,1.6902 14.16942,29.2794 3.63662,14.61739 7.13418,28.67707 7.77236,31.24374 0.63819,2.56666 2.05711,7.96666 3.15318,12 2.69678,9.92376 7.29781,27.29036 9.24354,34.88978 0.87634,3.42272 1.9471,6.57687 2.37946,7.00923 1.02716,1.02717 7.05762,-18.83775 11.10037,-36.56568 1.75595,-7.7 4.07799,-16.1 5.16011,-18.66667 1.08212,-2.56666 3.00908,-9.46666 4.28214,-15.33333 1.27307,-5.86667 2.79479,-11.86667 3.38162,-13.33333 0.58681,-1.46667 4.7475,-17.36667 9.24597,-35.33334 12.86129,-51.36742 13.82765,-53.73843 24.32208,-59.67602 3.87923,-2.19481 8.55313,-5.49563 10.38647,-7.33516 1.83333,-1.83953 7.26129,-5.50253 12.06212,-8.13999 4.80084,-2.63747 11.37121,-7.05741 14.60084,-9.82211 3.22962,-2.76469 10.40166,-8.04824 15.93788,-11.74121 12.76616,-8.51578 32.32126,-21.71599 34.06582,-22.99533 5.8519,-4.29138 9.35312,-5.72929 13.07364,-5.36916 3.93476,0.38087 4.23299,0.74942 3.90964,4.83155 -0.19253,2.43058 -1.46752,6.63058 -2.83332,9.33333 -2.231,4.41492 -7.38836,19.61562 -15.01245,44.24744 -1.47539,4.76667 -3.76348,11.06667 -5.08464,14 -1.32116,2.93333 -4.00301,11.22259 -5.95968,18.42056 -6.0352,22.2017 -46.34197,137.33966 -54.67623,156.1849 -2.57852,5.83048 -4.50666,7.91433 -11.29982,12.21229 -12.83911,8.12316 -59.5823,39.99171 -72.11714,49.16798 -12.55788,9.19313 -27.76178,19.3476 -28.96842,19.3476 -0.42894,0 -2.74647,1.5 -5.1501,3.33333 -8.38232,6.39351 -8.0604,6.88143 -21.77244,-33 z m 169.61839,-72.56286 c -0.47561,-1.2394 2.15252,-11.15759 5.91791,-22.33334 3.72541,-11.05709 9.59229,-28.5038 13.03749,-38.77046 3.44521,-10.26667 8.35655,-24.36667 10.91407,-31.33334 8.07184,-21.98762 27.04437,-77.33081 32.45325,-94.66666 5.69656,-18.2579 9.84343,-31.07415 12.74563,-39.39152 2.80352,-8.03451 6.338909,-8.60848 53.024409,-8.60848 45.1650005,0 46.7824005,0.27952 48.93840048,8.45751 0.8037,3.04837 5.96250002,19.01749 11.46399952,35.48693 10.1752,30.46077 16.2487,45.62005 18.945,47.28645 0.8245,0.50957 1.4991,2.40344 1.4991,4.20861 0,3.25711 -4.9541,7.59948 -16.6118,14.5605 -2.4562,1.46666 -8.8733995,5.65918 -14.26039952,9.3167 -5.38699998,3.65751 -10.74830048,7.25751 -11.91410048,8 -1.1658,0.74248 -6.4219,4.19996 -11.6803,7.6833 -5.2584,3.48333 -10.9865,6.33333 -12.7291,6.33333 -3.2617,0 -3.2662,-0.009 -5.6385,-12.33333 -0.4588,-2.38334 -1.3051,-4.93334 -1.8807,-5.66667 -0.5756,-0.73333 -1.4493,-3.73333 -1.9415,-6.66667 -1.5318,-9.12809 -4.6943,-19.33333 -5.9911,-19.33333 -1.7376,0 -9.9412,28.8747 -12.6421,44.49748 -0.4911,2.84028 -1.4484,6.14028 -2.1274,7.33333 -0.6791,1.19306 -2.5196,5.76919 -4.0901,10.16919 -3.5104,9.83479 -9.5743,15.9618 -25.7326,26 -6.492349,4.03333 -15.769389,9.80809 -20.615629,12.83281 -4.84625,3.02472 -11.60624,7.97472 -15.0222,11 -3.41596,3.02528 -6.76037,5.50052 -7.43202,5.50052 -0.67164,0 -8.67678,5.09279 -17.78916,11.31731 -17.34647,11.84908 -19.44144,12.76584 -20.84055,9.11983 z M -454.83836,399.6814 c -1.12357,-1.12357 -2.32188,-3.97357 -2.66292,-6.33333 -2.84561,-19.69001 -3.50117,-28.11129 -3.4935,-44.87687 0.0141,-30.72981 3.21599,-42.30149 14.43837,-52.17982 5.76933,-5.07837 15.88543,-9.23378 22.47911,-9.23378 2.35346,0 3.09133,-0.74581 3.09133,-3.1246 0,-3.66021 -3.91877,-15.16542 -7.88314,-23.14432 -1.53094,-3.08124 -2.78353,-6.41095 -2.78353,-7.39936 0,-0.98841 -3.03512,-11.36739 -6.74471,-23.06441 -3.7096,-11.69702 -7.09027,-24.38562 -7.51261,-28.19691 -0.74861,-6.75567 -0.67135,-6.95647 3.07805,-8 4.32885,-1.2048 74.07902,-0.96475 82.84594,0.28512 4.19678,0.59832 5.66667,1.4123 5.66667,3.13801 0,1.28157 0.88091,3.49481 1.95759,4.9183 1.07668,1.4235 1.97668,4.11555 2,5.98234 0.0233,1.86679 4.24925,18.66679 9.39095,37.33333 17.98628,65.29776 18.12839,65.94241 15.67207,71.09337 -1.44523,3.03066 -4.1428,5.47389 -8.22635,7.4507 -3.34179,1.61773 -8.93759,5.44343 -12.43512,8.50155 -3.49753,3.05812 -9.05914,6.92356 -12.35914,8.58987 -3.3,1.66631 -11.645,7.24559 -18.54443,12.3984 -15.47534,11.55769 -17.21754,11.60628 -20.50746,0.57195 -5.39356,-18.0899 -10.80312,-33.75279 -12.422,-35.96674 -4.14158,-5.66394 -16.46128,1.84524 -20.02254,12.20426 -2.54866,7.41353 -3.76436,25.15597 -2.11461,30.86133 0.77947,2.69563 2.64991,8.93051 4.15655,13.85528 1.50663,4.92477 2.39986,9.83879 1.98495,10.92001 -1.01851,2.65419 -8.13821,7.4693 -18.79064,12.70826 -6.69437,3.29234 -7.61132,3.35562 -10.25888,0.70806 z M -229.5948,248.57319 c -0.78194,-2.46373 6.13379,-31.48428 10.83103,-45.45023 2.15,-6.39245 2.99183,-7.40748 6.98817,-8.42597 5.368,-1.36806 60.78939,-0.75731 62.22858,0.68578 0.54402,0.5455 -0.15718,2.26947 -1.55823,3.83104 -3.46904,3.86645 -35.89679,26.86831 -42.70268,30.29013 -3.01875,1.51775 -7.21875,4.17501 -9.33333,5.90504 -2.11459,1.73002 -6.54544,4.69652 -9.84634,6.59221 -3.30089,1.89568 -7.14388,4.70889 -8.53997,6.25156 -3.14167,3.4715 -7.01824,3.62548 -8.06723,0.32044 z"
         id="path2969" />
    </g>
  </g>
</svg>
